<svg xmlns="http://www.w3.org/2000/svg" viewBox="0 0 23 23"><path d="M1 1h7v7h-7zM10 1h1v3h1v1h-2v1h1v1h-1v1h1v-1h1v1h1v-2h-1v-1h1v-1h-1v-2h1v-1h1v10h-1v-2h-1v1h-1v1h-3v-1h2v-1h-1v-6h1zM15 1h7v7h-7zM2 2v5h5v-5zM16 2v5h5v-5zM3 3h3v3h-3zM17 3h3v3h-3zM1 9h1v3h-1zM3 9h5v1h-3v1h3v1h-4v-2h-1zM15 9h5v1h2v1h-1v1h1v1h-1v1h1v1h-1v1h-1v-1h-1v1h-1v-1h-1v-1h1v-1h-1v-1h1v-1h-2v-1h-1zM11 11h2v1h-1v1h-1zM14 11h1v1h-1zM19 11v1h1v-1zM8 12h1v2h-3v-1h2zM1 13h3v1h-3zM12 13h1v1h-1zM15 13h2v1h-1v2h-1v-1h-1v1h1v1h-2v1h-2v-2h2v-2h2zM19 13v1h1v-1zM9 14h2v2h-1v-1h-1zM1 15h7v7h-7zM2 16v5h5v-5zM9 16h1v2h1v1h5v1h-1v1h-1v-1h-1v2h-1v-2h-3zM19 16h1v1h-1zM3 17h3v3h-3zM15 17h1v1h-1zM17 17h1v1h1v1h-3v-1h1zM20 17h2v1h-2zM16 20h4v1h-1v1h-1v-1h-1v1h-2v-1h1zM9 21h1v1h-1zM20 21h1v1h-1z"/></svg>